<svg xmlns="http://www.w3.org/2000/svg" width="99" height="87" viewBox="0 0 99 87">
  <g id="Group_153" data-name="Group 153" transform="translate(-144 -5910)">
    <path id="Polygon_8" data-name="Polygon 8" d="M74.25,0,99,43.5,74.25,87H24.75L0,43.5,24.75,0Z" transform="translate(144 5910)" fill="#090909"/>
    <rect id="Property_1_bold" data-name="Property 1=bold" width="24" height="24" transform="translate(182 5942)" fill="none"/>
    <path id="Vector" d="M0,0H24V24H0Z" transform="translate(182 5942)" fill="none" opacity="0"/>
    <path id="Vector-2" data-name="Vector" d="M12.37,6.09a6.854,6.854,0,0,1-3,5.6L8.03,14.64a1,1,0,0,1-1.68.23L4.87,13.09A7.743,7.743,0,0,1,0,11.41l.6-.71A8.719,8.719,0,0,0,8.87,2.23,8.337,8.337,0,0,0,8.56,0a6.938,6.938,0,0,1,3.81,6.09Z" transform="translate(191.63 5948.77)" fill="#fff"/>
    <path id="Vector-3" data-name="Vector" d="M15,7a7.262,7.262,0,0,1-7.5,7l-.93,1.12-.55.66a1,1,0,0,1-1.68-.23L3,12.6A6.854,6.854,0,0,1,0,7,7.262,7.262,0,0,1,7.5,0a7.514,7.514,0,0,1,6.8,4.07A6.458,6.458,0,0,1,15,7ZM10.75,7A.755.755,0,0,0,10,6.25H5a.75.75,0,0,0,0,1.5h5A.755.755,0,0,0,10.75,7Z" transform="translate(184 5944)" fill="#fff"/>
  </g>
</svg>
